#!OML:ASF E:\pregnant2\Project 1\Capture day 1\Session 1\pregnant2.ASF
:FULLY-SPECIFIED
:DEGREES
866
root -8.01309 16.9578 46.4822 -478.41 -85.804 508.659
lowerback -19.7226 -1.25847 -3.89903
upperback -14.5416 -2.43124 1.28854
thorax -4.64372 -1.46605 3.25172
lowerneck -3.64245 -11.7185 -18.7044
upperneck 35.7379 -22.8646 12.6681
head 17.6653 -11.8547 4.41464
rclavicle 8.29926e-015 7.55382e-015
rhumerus -56.676 -0.63531 -78.0611
rradius 29.9622
rwrist 11.0523
rhand -10.2856 -11.8071
rfingers 7.12502
rthumb 195.709 138.811
lclavicle 8.29926e-015 7.55382e-015
lhumerus -40.6375 -3.37889 74.7868
lradius 31.1436
lwrist 1.04493
lhand -15.6946 32.4938
lfingers 7.12502
lthumb 190.495 -117.788
rfemur -57.2073 3.34547 21.0399
rtibia 27.7114
rfoot -16.0387 -35.5998
rtoes 24.7248
lfemur -32.1481 0.672069 -29.3244
ltibia 22.4991
lfoot -13.8097 27.9806
ltoes -13.8798
867
root -8.07013 16.9545 46.4739 -480.762 -85.3358 511.065
lowerback -19.7362 -1.25986 -3.90636
upperback -14.5489 -2.44202 1.26365
thorax -4.64546 -1.47665 3.22764
lowerneck -3.5153 -11.8145 -18.8176
upperneck 35.5397 -23.0555 12.801
head 17.6171 -11.9437 4.44775
rclavicle 1.64494e-014 -1.59028e-014
rhumerus -56.5984 -0.719241 -78.0546
rradius 30.1015
rwrist 10.9586
rhand -10.4081 -11.9141
rfingers 7.12502
rthumb 195.591 138.694
lclavicle 1.64494e-014 -1.59028e-014
lhumerus -41.0359 -3.45888 74.9959
lradius 31.7396
lwrist 1.4202
lhand -15.4512 32.322
lfingers 7.12502
lthumb 190.73 -117.972
rfemur -57.1638 3.86593 20.8509
rtibia 27.2492
rfoot -17.1013 -37.1628
rtoes 26.3592
lfemur -31.8856 0.893443 -29.5377
ltibia 22.3276
lfoot -13.819 28.1119
ltoes -13.985
868
root -8.12764 16.9492 46.4639 -482.599 -84.8733 512.954
lowerback -19.7449 -1.26422 -3.91564
upperback -14.5592 -2.45672 1.24291
thorax -4.65256 -1.48877 3.20876
lowerneck -3.39034 -11.9065 -18.9285
upperneck 35.3453 -23.2386 12.9292
head 17.5691 -12.0296 4.47999
rclavicle -1.39149e-015 -9.14409e-015
rhumerus -56.53 -0.764478 -78.0726
rradius 30.2769
rwrist 10.8342
rhand -10.516 -12.0303
rfingers 7.12502
rthumb 195.487 138.57
lclavicle -1.39149e-015 -9.14409e-015
lhumerus -41.4499 -3.50879 75.211
lradius 32.3497
lwrist 1.75601
lhand -15.1908 32.1316
lfingers 7.12502
lthumb 190.981 -118.176
rfemur -57.1129 4.4935 20.531
rtibia 26.877
rfoot -18.1433 -38.4725
rtoes 27.867
lfemur -31.6594 1.1304 -29.7455
ltibia 22.2375
lfoot -13.8753 28.2072
ltoes -14.1145
869
root -8.18578 16.9417 46.4523 -484.088 -84.4146 514.491
lowerback -19.7505 -1.28117 -3.9331
upperback -14.5742 -2.48736 1.24129
thorax -4.66449 -1.50747 3.2128
lowerneck -3.27376 -11.9866 -19.0432
upperneck 35.164 -23.3934 13.0362
head 17.5204 -12.1058 4.50979
rclavicle 8.24956e-015 1.59028e-015
rhumerus -56.4635 -0.728039 -78.1238
rradius 30.4804
rwrist 10.669
rhand -10.6169 -12.1377
rfingers 7.12502
rthumb 195.39 138.455
lclavicle 8.24956e-015 1.59028e-015
lhumerus -41.8969 -3.51108 75.4368
lradius 32.98
lwrist 2.07931
lhand -14.9287 31.9447
lfingers 7.12502
lthumb 191.234 -118.376
rfemur -57.0542 5.18282 20.1286
rtibia 26.5942
rfoot -18.9497 -39.463
rtoes 29.1013
lfemur -31.4725 1.37938 -29.9464
ltibia 22.2413
lfoot -13.9966 28.2743
ltoes -14.2384
870
root -8.2447 16.9315 46.4391 -485.319 -83.9637 515.767
lowerback -19.7562 -1.3036 -3.94682
upperback -14.5914 -2.52594 1.24916
thorax -4.6779 -1.53008 3.22375
lowerneck -3.16012 -12.0571 -19.1645
upperneck 34.9933 -23.5292 13.1325
head 17.4731 -12.1762 4.54035
rclavicle -1.44119e-015 7.95139e-016
rhumerus -56.4109 -0.549648 -78.2806
rradius 30.7297
rwrist 10.3632
rhand -10.703 -12.2609
rfingers 7.12502
rthumb 195.307 138.326
lclavicle -1.44119e-015 7.95139e-016
lhumerus -42.3677 -3.5056 75.6789
lradius 33.6289
lwrist 2.42437
lhand -14.6782 31.7656
lfingers 7.12502
lthumb 191.475 -118.568
rfemur -56.9819 5.88979 19.692
rtibia 26.3952
rfoot -19.3501 -40.0945
rtoes 29.9796
lfemur -31.3296 1.65867 -30.145
ltibia 22.3506
lfoot -14.1835 28.2962
ltoes -14.3712
871
root -8.30448 16.9184 46.4244 -486.357 -83.5192 516.842
lowerback -19.7651 -1.334 -3.956
upperback -14.6091 -2.57557 1.26915
thorax -4.6889 -1.55818 3.24329
lowerneck -3.05619 -12.1157 -19.2993
upperneck 34.838 -23.6416 13.2187
head 17.4317 -12.2391 4.57352
rclavicle -2.93207e-015 -8.74653e-015
rhumerus -56.3546 -0.279058 -78.4908
rradius 30.9956
rwrist 9.99882
rhand -10.7521 -12.3655
rfingers 7.12502
rthumb 195.259 138.217
lclavicle -2.93207e-015 -8.74653e-015
lhumerus -42.8628 -3.47437 75.9327
lradius 34.292
lwrist 2.78259
lhand -14.434 31.5989
lfingers 7.12502
lthumb 191.711 -118.748
rfemur -56.8893 6.55121 19.2911
rtibia 26.2749
rfoot -19.2393 -40.3383
rtoes 30.4183
lfemur -31.226 1.9576 -30.3375
ltibia 22.5599
lfoot -14.4469 28.279
ltoes -14.481
